<?xml version="1.0" encoding="UTF-8" standalone="no"?>
<!-- Created with Inkscape (http://www.inkscape.org/) -->

<svg
   version="1.1"
   id="svg1"
   width="1024"
   height="1024"
   viewBox="0 0 1024 1024"
   sodipodi:docname="Icon Zukunftsbau.svg"
   inkscape:version="1.4.2 (f4327f4, 2025-05-13)"
   xmlns:inkscape="http://www.inkscape.org/namespaces/inkscape"
   xmlns:sodipodi="http://sodipodi.sourceforge.net/DTD/sodipodi-0.dtd"
   xmlns="http://www.w3.org/2000/svg"
   xmlns:svg="http://www.w3.org/2000/svg">
  <defs
     id="defs1" />
  <sodipodi:namedview
     id="namedview1"
     pagecolor="#ffffff"
     bordercolor="#000000"
     borderopacity="0.25"
     inkscape:showpageshadow="2"
     inkscape:pageopacity="0.0"
     inkscape:pagecheckerboard="0"
     inkscape:deskcolor="#d1d1d1"
     showgrid="false"
     inkscape:zoom="0.83105469"
     inkscape:cx="513.20329"
     inkscape:cy="512"
     inkscape:window-width="2400"
     inkscape:window-height="1261"
     inkscape:window-x="2392"
     inkscape:window-y="-9"
     inkscape:window-maximized="1"
     inkscape:current-layer="g1" />
  <g
     inkscape:groupmode="layer"
     inkscape:label="Image"
     id="g1">
    <path
       style="fill:#b29a36;fill-opacity:1;stroke-width:1.98023"
       d="m 254.91273,902.84556 c -2.43353,-2.71255 -3.59431,-12.28264 -5.34319,-44.05216 -1.22887,-22.32269 -4.00031,-58.85782 -6.15877,-81.18915 -7.2265,-74.76485 -7.23049,-77.792 -0.12633,-96.12634 12.683,-32.73227 42.44324,-78.58597 72.28552,-111.37544 14.25403,-15.66176 16.44258,-22.55699 9.23106,-29.08334 -8.51342,-7.70452 -17.21185,-3.79822 -34.02737,15.28103 -22.61338,25.65761 -41.7867,52.27512 -54.18631,75.22444 l -6.13564,11.35593 -6.38743,-56.90106 c -3.51309,-31.29559 -6.35898,-60.65709 -6.32418,-65.2478 0.16673,-22.00203 24.56813,-70.54422 57.77082,-114.9246 16.42763,-21.958 18.29633,-27.46032 11.60024,-34.15641 -6.91266,-6.91267 -14.40379,-5.15657 -24.07423,5.64358 -12.67617,14.15702 -29.98387,38.88009 -43.04535,61.48784 l -11.51916,19.93818 -3.3923,-21.25728 c -4.118,-25.80461 -23.86803,-136.06628 -26.91638,-150.27032 -1.20393,-5.60977 -3.83293,-11.68738 -5.84225,-13.50577 -5.27353,-4.77249 -15.61163,-3.23792 -20.25124,3.00605 -3.70738,4.98935 -3.6728,5.45769 3.21509,43.56492 9.51224,52.62623 17.64557,103.51763 24.82838,155.35452 3.32014,23.9607 6.5479,46.63288 7.17284,50.38264 l 1.13622,6.81771 -7.78689,-9.78804 c -14.84311,-18.65766 -72.15087,-69.26604 -96.505393,-85.22374 -10.591483,-6.93982 -26.945908,2.14828 -24.080288,13.38132 0.738583,2.89514 12.867094,13.8956 32.393601,29.38066 51.04027,40.47638 83.1425,75.21125 95.65641,103.50101 6.13865,13.87746 9.50512,29.64211 13.81732,64.7045 5.67102,46.11086 6.22486,44.3706 -8.68152,27.27901 -23.47757,-26.91927 -74.28558,-72.47012 -85.65614,-76.79319 -8.896505,-3.38245 -18.491043,3.40586 -18.491043,13.08271 0,5.72206 2.273178,8.30376 21.287393,24.17649 42.19083,35.22013 94.70403,93.80068 99.42432,110.91175 1.71883,6.23082 5.40418,44.23289 11.13555,114.82577 1.23821,15.25104 0.50588,16.39828 -7.71844,12.09172 C 191.86025,863.1591 121.91296,796.15267 97.573435,763.56061 25.306152,666.79042 -7.4507227,555.37767 1.8507031,437.98814 8.5110846,353.93011 32.343726,280.11754 76.479518,206.85374 c 14.193211,-23.56025 41.359512,-60.66351 57.492312,-78.522 l 9.61424,-10.64269 20.77179,13.93592 c 26.67753,17.89809 46.9149,34.73338 74.99066,62.38405 78.58618,77.39629 127.91139,172.46156 146.11173,281.60336 5.62413,33.7262 5.05054,107.80285 -1.104,142.57607 -13.13041,74.18713 -43.52774,144.23597 -99.46485,229.21086 l -7.49535,11.38628 h 315.75262 315.7526 l -0.0855,-181.68549 -0.0855,-181.68548 -27.87928,-25.74291 C 816.84039,410.56619 655.27732,263.8071 653.4871,263.14107 c -0.86839,-0.32307 -12.1474,9.10778 -25.0645,20.95745 -23.57404,21.62601 -88.48592,80.88385 -161.8345,147.73817 -21.63577,19.72013 -39.84748,35.85479 -40.47052,35.85479 -0.62303,0 -4.06781,-11.5843 -7.65507,-25.7429 l -6.52228,-25.74291 10.35867,-9.92101 c 23.78746,-22.78244 212.62695,-196.38552 218.07279,-200.47771 7.03584,-5.287 16.25649,-5.73708 23.03633,-1.12447 5.62646,3.82791 28.66521,24.5668 82.12483,73.92667 20.69333,19.10638 57.674,52.96879 82.17927,75.2498 24.50525,22.28099 61.0511,55.67162 81.21297,74.20138 20.16188,18.52978 53.71378,49.12614 74.55979,67.99195 20.84602,18.86581 38.42242,36.24227 39.05862,38.61436 4.7576,17.73897 -5.6959,33.02613 -22.58375,33.02613 -8.36378,0 -12.50796,-2.48816 -28.68145,-17.2203 l -13.86156,-12.62625 -0.99011,176.80652 c -0.74815,133.59957 -1.57828,177.83226 -3.39692,181.00391 -1.32375,2.30857 -5.46836,5.65019 -9.21027,7.42584 -6.20707,2.94545 -36.56379,3.22846 -346.30064,3.22846 -320.82616,0 -339.66816,-0.1905 -342.60607,-3.46539 z M 571.76826,656.64419 c -3.07815,-1.79285 -3.46539,-5.65866 -3.46539,-34.59368 v -32.57529 h 34.65389 34.65392 v 34.65391 34.6539 l -31.18853,-0.0602 c -17.47966,-0.0337 -32.71171,-0.94741 -34.65389,-2.07862 z m 96.53587,-32.51885 v -34.65241 l 35.14898,10e-4 35.14896,10e-4 v 30.82364 c 0,17.46066 -0.88868,32.48417 -2.04989,34.6539 -1.90126,3.55252 -4.45008,3.83008 -35.14896,3.82762 l -33.09909,-10e-4 z M 568.30287,527.49422 c 0,-22.46451 0.72243,-33.00008 2.37626,-34.65391 1.65383,-1.65381 12.18938,-2.37626 34.65391,-2.37626 h 32.27764 v 34.65391 34.65391 h -34.65392 -34.65389 z m 99.10957,-2.37626 -0.17564,-34.65391 h 33.30634 c 23.26464,0 34.02277,0.71642 35.68261,2.37626 1.65383,1.65383 2.37628,12.1894 2.37628,34.65391 v 32.27765 h -35.50702 -35.507 z"
       id="path1"
       sodipodi:nodetypes="sssssssscsssssscssssssscssssssssssssssssscssssscccccsssssscsssssssssscssssssscccccsssccccsscccssscccccsccssscccc" />
  </g>
</svg>
