<?xml version="1.0" encoding="UTF-8" standalone="no"?>
<!-- Created with Inkscape (http://www.inkscape.org/) -->

<svg
   version="1.1"
   id="svg1"
   width="1024"
   height="1024"
   viewBox="0 0 1024 1024"
   sodipodi:docname="Logo Zukunftsbau.svg"
   inkscape:version="1.4.2 (f4327f4, 2025-05-13)"
   xmlns:inkscape="http://www.inkscape.org/namespaces/inkscape"
   xmlns:sodipodi="http://sodipodi.sourceforge.net/DTD/sodipodi-0.dtd"
   xmlns="http://www.w3.org/2000/svg"
   xmlns:svg="http://www.w3.org/2000/svg">
  <defs
     id="defs1" />
  <sodipodi:namedview
     id="namedview1"
     pagecolor="#ffffff"
     bordercolor="#000000"
     borderopacity="0.25"
     inkscape:showpageshadow="2"
     inkscape:pageopacity="0.0"
     inkscape:pagecheckerboard="0"
     inkscape:deskcolor="#d1d1d1"
     showgrid="false"
     inkscape:zoom="0.83105469"
     inkscape:cx="512.60165"
     inkscape:cy="512"
     inkscape:window-width="1920"
     inkscape:window-height="1111"
     inkscape:window-x="1184"
     inkscape:window-y="1341"
     inkscape:window-maximized="1"
     inkscape:current-layer="g1" />
  <g
     inkscape:groupmode="layer"
     inkscape:label="Image"
     id="g1">
    <path
       style="fill:#b29a36;fill-opacity:1"
       d="m 200.18684,796.87803 c -5.32395,-1.62534 -10.93787,-5.16561 -13.932,-8.78585 -5.46151,-6.60358 -6.068,-10.64759 -6.068,-40.46052 v -26.8185 h 9.5 9.5 l 0.002,24.25 c 0.002,27.13427 0.41732,29.15181 6.89633,33.48007 6.84831,4.57496 19.06364,1.90528 22.83151,-4.98988 1.51206,-2.76787 1.84304,-6.81153 2.27016,-27.74019 l 0.5,-24.5 9.25,-0.28753 9.25,-0.28752 0.002,37.78752 0.002,37.78753 -9.5973,-0.32085 -9.5973,-0.32085 0.35227,-4.42915 c 0.19422,-2.43603 0.3175,-4.42915 0.27444,-4.42915 -0.0431,0 -2.08715,1.92481 -4.5424,4.27735 -2.46808,2.36484 -6.28874,4.82404 -8.54492,5.5 -4.46637,1.33816 -14.39759,1.49378 -18.34879,0.28752 z m 170,0.0587 c -5.53394,-1.81945 -10.96787,-5.26127 -13.87537,-8.78857 -5.66831,-6.87661 -6.12463,-9.85783 -6.12463,-40.01314 v -27.32186 h 9.5 9.5 v 24.03212 c 0,26.01411 0.37535,28.28395 5.45169,32.96788 2.3777,2.1939 3.60888,2.5 10.05554,2.5 8.29423,0 11.45907,-1.60525 14.99277,-7.60453 1.82474,-3.09792 2.02758,-5.52376 2.31469,-27.68214 l 0.31469,-24.28667 8.96285,0.28667 8.96285,0.28667 -0.002,37.25 c -10e-4,20.4875 -0.23862,37.25 -0.52754,37.25 -0.28893,0 -4.63384,0 -9.65537,0 h -9.13005 l 0.50721,-4.5 c 0.27897,-2.475 0.30844,-4.5 0.0655,-4.5 -0.24294,0 -1.59427,1.36973 -3.00295,3.04385 -4.11992,4.89624 -9.78363,7.24548 -18.30965,7.5946 -4.125,0.16891 -8.625,-0.0628 -10,-0.51485 z m 275.5,-0.52242 c -8.4571,-2.67463 -14.45344,-7.48496 -17.93086,-14.38432 l -1.65477,-3.28313 3.79281,-1.55794 c 2.08605,-0.85687 5.77486,-2.42241 8.19736,-3.47899 2.42249,-1.05658 4.46084,-1.8031 4.52965,-1.65893 0.0688,0.14417 0.88149,1.9276 1.80595,3.96318 2.02054,4.4491 5.33399,6.79801 10.58252,7.50199 11.28913,1.51419 17.74998,-10.54433 8.53355,-15.92701 -1.72303,-1.0063 -6.67056,-2.50312 -10.9945,-3.32625 -15.34337,-2.92087 -22.39908,-8.81825 -23.16154,-19.35916 -0.5144,-7.11153 0.99578,-12.10527 5.06101,-16.7353 4.87542,-5.5528 9.99038,-7.65028 19.87841,-8.15148 13.65763,-0.69227 22.42392,3.29922 27.624,12.57786 l 2.2636,4.03898 -7.76077,2.95445 -7.76077,2.95445 -1.17734,-2.80008 c -2.4177,-5.75001 -13.40485,-8.01693 -18.69345,-3.85692 -2.04269,1.60678 -2.63486,2.95007 -2.63486,5.97695 0,5.11197 2.25092,6.56425 13.10758,8.45694 15.94243,2.77931 24.62887,9.69535 25.66038,20.43048 1.5219,15.83867 -10.50585,27.17891 -28.63279,26.99615 -3.64935,-0.0368 -8.43517,-0.63616 -10.63517,-1.33192 z m 83.72346,-0.22494 c -2.35209,-0.85833 -5.90254,-3.09412 -7.88987,-4.96842 -1.98734,-1.87427 -3.7754,-3.40779 -3.97347,-3.40779 -0.19807,0 -0.36012,1.9125 -0.36012,4.25 v 4.25 h -9.5 -9.5 v -52.75 -52.75 h 9.5 9.5 v 19.69617 19.69616 l 3.25,-3.08421 c 6.16512,-5.85063 9.1537,-6.80812 21.25,-6.80812 9.14566,0 11.78374,0.3623 15.64917,2.14917 21.75806,10.05808 26.67285,46.86702 8.72686,65.35913 -6.23157,6.42122 -13.59584,9.41135 -23.87603,9.69446 -5.73145,0.15784 -9.89292,-0.27423 -12.77654,-1.32652 z m 18.95132,-17.93147 c 6.34525,-4.45961 9.331,-11.01336 9.30204,-20.41808 -0.0257,-8.33386 -1.99057,-13.3494 -7.13524,-18.21307 -8.61464,-8.14413 -23.2772,-5.91322 -29.74249,4.52533 -5.78195,9.33525 -4.44523,25.55162 2.67334,32.43158 4.45863,4.30918 7.23537,5.25479 14.457,4.92327 5.00946,-0.22996 7.05507,-0.86625 10.44535,-3.24903 z m 52.32522,17.6594 c -14.18866,-6.56914 -17.09236,-26.66444 -5.29385,-36.63651 5.43323,-4.59216 11.06555,-6.45641 26.29839,-8.70457 l 14.49546,-2.13933 v -3.79609 c 0,-2.7611 -0.77741,-4.66616 -2.85135,-6.9873 -2.47913,-2.77463 -3.63651,-3.24801 -8.86601,-3.62628 -7.2287,-0.52287 -12.325,1.51347 -15.5937,6.23082 l -2.18894,3.15905 -8.25,-1.87702 c -4.5375,-1.03236 -8.25,-2.20514 -8.25,-2.60618 0,-2.09107 6.44442,-10.43012 10.11555,-13.08947 5.9086,-4.28017 12.69793,-6.03126 23.38445,-6.03126 12.19817,0 18.76975,2.00659 24.13158,7.36842 6.72187,6.72188 7.36842,10.38477 7.36842,41.74446 v 26.74988 l -9.50224,0.31862 -9.50224,0.31862 0.002,-4.33499 0.002,-4.33498 -4.44082,3.90897 c -2.44246,2.14993 -6.20717,4.43817 -8.36602,5.08498 -6.10822,1.83007 -18.00039,1.45284 -22.69316,-0.71984 z m 26.19841,-14.20019 c 5.81408,-2.81455 9.30159,-8.71673 9.30159,-15.74181 0,-6.00159 0.56511,-5.82486 -12,-3.7529 -10.17478,1.6778 -13.12967,2.74019 -15.90397,5.71806 -3.92343,4.21131 -2.05545,12.73568 3.26097,14.88112 3.87552,1.56397 10.86925,1.06047 15.34141,-1.10447 z m 62.6663,15.00699 c -6.43889,-1.86614 -12.66488,-7.10738 -15.84222,-13.33649 l -3.02249,-5.92555 -0.31959,-28.32445 -0.3196,-28.32445 h 9.50622 9.50621 l 0.31338,24.75 c 0.28803,22.74808 0.4779,25.0331 2.3474,28.25 2.92433,5.032 7.64946,7.19419 14.72942,6.74009 6.53095,-0.41888 10.11312,-2.54185 13.23656,-7.84462 1.82722,-3.10214 2.0227,-5.46883 2.2628,-27.39547 l 0.2628,-24 8.9872,-0.28753 8.9872,-0.28752 3.2e-4,37.78752 3.1e-4,37.78753 -9.25031,-0.16934 -9.25032,-0.16934 0.0429,-4.58066 c 0.0236,-2.51936 -0.0901,-4.58066 -0.2526,-4.58066 -0.16253,0 -1.88977,1.76466 -3.83832,3.92147 -2.1551,2.38544 -5.35744,4.53978 -8.17554,5.5 -5.00958,1.70694 -14.87431,1.94943 -19.91173,0.48947 z m -803.365038,-8.208 3.27e-4,-7.79706 11.25724,-13.70294 c 11.992061,-14.5974 43.742211,-54.77648 43.743571,-55.35646 4.5e-4,-0.19057 -12.14955,-0.21332 -27,-0.0506 l -27.000811,0.29594 v -9.04591 -9.04591 h 40.000001 40 v 8.00482 8.00482 l -11.30766,14.24518 c -6.21922,7.83485 -18.36922,23.13107 -27,33.99161 -8.63079,10.86054 -15.69234,19.97304 -15.69234,20.25 0,0.27696 12.6,0.50357 28,0.50357 h 28 v 8.47841 8.47842 l -41.50033,0.27158 -41.500325,0.27159 z M 267.18684,743.56316 v -52.75 h 9.48534 9.48533 l 0.26467,29.84426 0.26466,29.84426 13.84602,-14.84426 13.84601,-14.84426 h 12.14148 12.14148 l -14.73749,14.76211 c -8.10563,8.11916 -14.7375,15.09049 -14.7375,15.49185 0,0.40136 6.75,10.63708 15,22.74604 8.25,12.10896 15.00088,22.12513 15.00196,22.25815 10e-4,0.13302 -5.12619,0.10291 -11.39395,-0.0669 l -11.39592,-0.30875 -10.32172,-15.69125 c -5.67695,-8.63019 -10.40051,-15.82959 -10.4968,-15.99867 -0.0963,-0.16908 -2.2388,1.85592 -4.76114,4.5 l -4.58607,4.80742 -0.0232,11.5 -0.0232,11.5 h -9.5 -9.5 z m 170.99776,15 0.002,-37.75 h 9.5 9.5 v 4.38487 4.38487 l 3.64775,-3.34121 c 5.0585,-4.6334 11.03553,-6.43282 21.28039,-6.40657 9.8684,0.0253 14.70136,1.76229 19.77118,7.10593 6.40989,6.75609 6.71769,8.45224 7.11086,39.18463 0.1957,15.29689 0.15188,28.34689 -0.0974,29 -0.3185,0.83457 -3.31511,1.09279 -10.083,0.86886 l -9.62978,-0.31862 v -24.4635 c 0,-27.30082 -0.48076,-29.8929 -6.18982,-33.37363 -4.73446,-2.88651 -13.41,-2.77729 -17.82035,0.22437 -7.45106,5.07115 -7.45623,5.09287 -7.7883,32.75335 l -0.29847,24.86169 -9.45377,0.31748 -9.45377,0.31748 z m 95.9745,37.25 c -0.0153,-0.275 -0.003,-13.8875 0.027,-30.25 l 0.0548,-29.75 -7.27703,-6.5e-4 -7.27704,-6.5e-4 0.0141,-7.24935 0.0142,-7.24935 7.10975,-0.29126 7.10975,-0.29127 0.46042,-7.70873 c 0.94926,-15.89299 9.99468,-24.23881 26.22327,-24.19509 9.06289,0.0244 9.11361,0.0725 8.74728,8.28505 l -0.32121,7.2013 -5.38125,0.052 c -3.77524,0.0365 -5.99066,0.60349 -7.42317,1.8999 -2.19697,1.98823 -4.03857,7.35621 -4.04757,11.7981 l -0.006,2.75 h 9 9 v 7.5 7.5 h -9 -9 v 30.25 30.25 h -9 c -4.95,0 -9.01249,-0.225 -9.02774,-0.5 z m 60.69114,-2.11251 c -2.9177,-1.53933 -4.45299,-3.3705 -6.41014,-7.64546 -2.4602,-5.37381 -2.59454,-6.60378 -3.05069,-27.93169 l -0.47717,-22.31034 h -4.8627 -4.8627 v -7.5 -7.5 h 5 5 v -9 -9 h 9.5 9.5 v 9 9 h 7 7 v 7.5 7.5 h -7 -7 v 20 c 0,18.66667 0.13333,20.13333 2,22 1.46667,1.46667 3.33333,2 7,2 h 5 v 8 8 l -9.75,-0.0442 c -7.7992,-0.0353 -10.51764,-0.44918 -13.5866,-2.06831 z M 376.92684,608.06316 c -1.22891,-1.36982 -1.8151,-6.20265 -2.69827,-22.24605 -0.62057,-11.27282 -2.02013,-29.72282 -3.11014,-41 -3.64934,-37.75577 -3.65135,-39.28446 -0.0638,-48.54318 6.40484,-16.52959 21.43357,-39.68541 36.50372,-56.24388 7.1982,-7.90909 8.3034,-11.39114 4.66163,-14.6869 -4.29922,-3.89073 -8.69187,-1.91808 -17.1836,7.71682 -11.41961,12.95693 -21.10202,26.3986 -27.36374,37.98786 l -3.09846,5.73467 -3.22561,-28.73467 c -1.77409,-15.80407 -3.21124,-30.63144 -3.19367,-32.94972 0.0842,-11.11088 12.40675,-35.62437 29.17389,-58.03618 8.29585,-11.08865 9.23953,-13.86729 5.85805,-17.24877 -3.49085,-3.49085 -7.27382,-2.60403 -12.15733,2.84998 -6.40139,7.1492 -15.14166,19.63419 -21.73763,31.05096 l -5.8171,10.06865 -1.71309,-10.73479 c -2.07956,-13.03116 -12.0532,-68.71259 -13.5926,-75.88554 -0.60797,-2.8329 -1.9356,-5.90205 -2.95029,-6.82033 -2.6631,-2.41008 -7.88378,-1.63513 -10.22675,1.51804 -1.8722,2.51959 -1.85474,2.75609 1.6236,22 4.80362,26.57591 8.9109,52.27574 12.53817,78.45303 1.67665,12.1 3.30665,23.54931 3.62224,25.44291 l 0.57378,3.4429 -3.93233,-4.9429 c -7.49567,-9.422 -36.43572,-34.9789 -48.7346,-43.03744 -5.34863,-3.50456 -13.60751,1.08487 -12.16039,6.75748 0.37298,1.46203 6.4978,7.01719 16.35856,14.83705 25.77501,20.44031 41.98643,37.98119 48.30587,52.26734 3.09998,7.00803 4.80003,14.96908 6.97766,32.67535 2.86383,23.28569 3.14351,22.40687 -4.38411,13.77573 -11.85602,-13.59406 -37.51374,-36.59694 -43.2558,-38.78007 -4.49268,-1.70811 -9.33786,1.71994 -9.33786,6.60669 0,2.8896 1.14794,4.19334 10.75,12.20897 21.3061,17.78594 47.82492,47.36874 50.20864,56.00972 0.868,3.14652 2.72908,22.33732 5.62338,57.98627 0.62529,7.70168 0.25547,8.28103 -3.89776,6.10624 -10.78535,-5.64764 -46.10828,-39.48546 -58.39959,-55.94424 -36.49451,-48.86832 -53.03652,-105.13104 -48.33936,-164.412 3.36345,-42.44876 15.39878,-79.72363 37.68707,-116.72138 7.16748,-11.89777 20.88629,-30.63468 29.03325,-39.6531 l 4.85513,-5.37449 10.48962,7.03755 c 13.47198,9.03842 23.69172,17.54013 37.8698,31.50354 39.68551,39.08463 64.59443,87.09198 73.78548,142.20788 2.84015,17.03151 2.55049,54.43974 -0.55751,72 -6.63077,37.46402 -21.98123,72.83823 -50.22911,115.75 l -3.7851,5.75 h 159.45303 159.45303 l -0.0432,-91.75 -0.0432,-91.75 -14.07886,-13 c -32.32489,-29.8479 -113.9132,-103.9603 -114.81725,-104.29664 -0.43853,-0.16315 -6.13436,4.59937 -12.65741,10.58338 -11.90474,10.92099 -44.68482,40.84582 -81.72538,74.60682 -10.92592,9.95854 -20.12272,18.10644 -20.43735,18.10644 -0.31463,0 -2.05422,-5.85 -3.86576,-13 l -3.29371,-13 5.23106,-5.01005 c 12.01252,-11.50498 107.37524,-99.17342 110.12535,-101.23995 3.55306,-2.6699 8.20943,-2.89719 11.6332,-0.56785 2.84133,1.93307 14.47575,12.40607 41.47251,37.33249 10.45,9.6486 29.125,26.7489 41.5,38.00066 12.375,11.25176 30.83042,28.11381 41.01203,37.47122 10.18162,9.35742 27.12511,24.80839 37.65221,34.3355 10.52709,9.52711 19.40303,18.30211 19.72431,19.5 2.40259,8.95807 -2.87639,16.67798 -11.40463,16.67798 -4.22363,0 -6.31641,-1.2565 -14.48392,-8.69614 l -7,-6.37617 -0.5,89.28615 c -0.37781,67.46692 -0.79702,89.80415 -1.71542,91.40581 -0.66849,1.16581 -2.76149,2.85331 -4.65113,3.75 -3.13453,1.48743 -18.46448,1.63035 -174.87959,1.63035 -162.01514,0 -171.53023,-0.0962 -173.01386,-1.75 z m 160.01,-124.3301 c -1.55444,-0.90538 -1.75,-2.85759 -1.75,-17.46959 v -16.45031 h 17.5 17.5 v 17.5 17.5 l -15.75,-0.0304 c -8.82712,-0.017 -16.51921,-0.47843 -17.5,-1.04969 z m 48.75,-16.42181 v -17.49924 l 17.75,5.8e-4 17.75,5.7e-4 v 15.56574 c 0,8.81752 -0.44878,16.4043 -1.03518,17.5 -0.96012,1.794 -2.24726,1.93416 -17.75,1.93292 l -16.71482,-0.001 z m -50.5,-48.79809 c 0,-11.34444 0.36483,-16.66483 1.2,-17.5 0.83517,-0.83517 6.15556,-1.2 17.5,-1.2 h 16.3 v 17.5 17.5 h -17.5 -17.5 z m 50.0497,-1.2 -0.0887,-17.5 h 16.81949 c 11.74849,0 17.18128,0.36179 18.01949,1.2 0.83517,0.83517 1.2,6.15556 1.2,17.5 v 16.3 H 603.25601 585.3252 Z"
       id="path1" />
  </g>
</svg>
